<svg width="39" height="33" viewBox="0 0 39 33" fill="none" xmlns="http://www.w3.org/2000/svg">
<path d="M0 7C0 5.89543 0.895431 5 2 5C3.10457 5 4 5.89543 4 7V33H0V7Z" fill="url(#paint0_linear_6_410)"/>
<path d="M7 21C7 19.8954 7.89543 19 9 19C10.1046 19 11 19.8954 11 21V33H7V21Z" fill="url(#paint1_linear_6_410)"/>
<path d="M14 13C14 11.8954 14.8954 11 16 11C17.1046 11 18 11.8954 18 13V33H14V13Z" fill="url(#paint2_linear_6_410)"/>
<path d="M21 7C21 5.89543 21.8954 5 23 5C24.1046 5 25 5.89543 25 7V33H21V7Z" fill="url(#paint3_linear_6_410)"/>
<path d="M28 10C28 8.89543 28.8954 8 30 8C31.1046 8 32 8.89543 32 10V33H28V10Z" fill="url(#paint4_linear_6_410)"/>
<path d="M35 2C35 0.895431 35.8954 0 37 0C38.1046 0 39 0.895431 39 2V33H35V2Z" fill="url(#paint5_linear_6_410)"/>
<defs>
<linearGradient id="paint0_linear_6_410" x1="2" y1="5" x2="2" y2="33" gradientUnits="userSpaceOnUse">
<stop stop-color="#53EAF3"/>
<stop offset="1" stop-color="#4395C4"/>
</linearGradient>
<linearGradient id="paint1_linear_6_410" x1="9" y1="19" x2="9" y2="33" gradientUnits="userSpaceOnUse">
<stop stop-color="#53EAF3"/>
<stop offset="1" stop-color="#4395C4"/>
</linearGradient>
<linearGradient id="paint2_linear_6_410" x1="16" y1="11" x2="16" y2="33" gradientUnits="userSpaceOnUse">
<stop stop-color="#53EAF3"/>
<stop offset="1" stop-color="#4395C4"/>
</linearGradient>
<linearGradient id="paint3_linear_6_410" x1="23" y1="5" x2="23" y2="33" gradientUnits="userSpaceOnUse">
<stop stop-color="#53EAF3"/>
<stop offset="1" stop-color="#4395C4"/>
</linearGradient>
<linearGradient id="paint4_linear_6_410" x1="30" y1="8" x2="30" y2="33" gradientUnits="userSpaceOnUse">
<stop stop-color="#53EAF3"/>
<stop offset="1" stop-color="#4395C4"/>
</linearGradient>
<linearGradient id="paint5_linear_6_410" x1="37" y1="0" x2="37" y2="33" gradientUnits="userSpaceOnUse">
<stop stop-color="#53EAF3"/>
<stop offset="1" stop-color="#4395C4"/>
</linearGradient>
</defs>
</svg>
