<svg width="20" height="20" viewBox="0 0 20 20" fill="none" xmlns="http://www.w3.org/2000/svg">
<path d="M8.23591 1.83913C8.63229 1.79242 9.03169 1.89713 9.35417 2.13231C9.67665 2.36748 9.89841 2.71577 9.97507 3.10747L9.99591 3.24663L10.0001 3.3333V9.16663C10.0001 9.37074 10.075 9.56775 10.2107 9.72028C10.3463 9.87281 10.5332 9.97025 10.7359 9.99413L10.8334 9.99997H16.5001C16.9421 9.99997 17.366 10.1756 17.6786 10.4881C17.9911 10.8007 18.1667 11.2246 18.1667 11.6666C18.1667 11.73 18.1594 11.7932 18.1451 11.855C17.8116 13.2938 17.1016 14.6182 16.088 15.6925C15.0743 16.7668 13.7933 17.5524 12.3762 17.9687C10.9591 18.3851 9.45675 18.4174 8.02306 18.0622C6.58937 17.707 5.27585 16.9772 4.21699 15.9474C3.15814 14.9177 2.392 13.625 1.99705 12.2017C1.6021 10.7785 1.59252 9.27583 1.96929 7.84767C2.34606 6.41951 3.09565 5.11714 4.14128 4.07395C5.18692 3.03076 6.49103 2.28423 7.92007 1.9108L8.14507 1.85497L8.23591 1.83913Z" fill="#333333"/>
<path d="M11.6667 2.91665V7.49998C11.6667 7.72099 11.7545 7.93295 11.9108 8.08924C12.0671 8.24552 12.2791 8.33331 12.5001 8.33331H17.0834C17.2166 8.33328 17.3479 8.30131 17.4662 8.2401C17.5845 8.17888 17.6864 8.0902 17.7633 7.98149C17.8403 7.87278 17.8901 7.7472 17.9085 7.61529C17.9269 7.48337 17.9135 7.34896 17.8692 7.22331C17.4554 6.04776 16.7831 4.98001 15.9019 4.09868C15.0207 3.21735 13.9531 2.54489 12.7776 2.13081C12.6519 2.08643 12.5174 2.07284 12.3854 2.09119C12.2533 2.10954 12.1276 2.15929 12.0188 2.23627C11.91 2.31326 11.8212 2.41522 11.76 2.53361C11.6987 2.65199 11.6667 2.78335 11.6667 2.91665Z" fill="#333333"/>
</svg>
