<svg width="114" height="114" viewBox="0 0 114 114" fill="none" xmlns="http://www.w3.org/2000/svg">
<rect width="114" height="114" rx="57" fill="white"/>
<path d="M37.4546 66.1153C34.0674 59.0237 35.3092 50.2743 41.1825 44.4004L44.9111 40.6725C49.8774 35.7062 49.8774 27.6532 44.9111 22.6862L32.4078 35.1887C19.9238 47.6734 19.8047 68.2228 32.4071 80.5892C39.7424 87.7883 49.7012 90.714 59.1703 89.3681L41.1825 71.3811C39.6062 69.8041 38.3642 68.0192 37.4546 66.1153Z" fill="#176ACF"/>
<path d="M81.2025 40.3541C80.0446 38.6064 78.696 36.9475 77.1562 35.4076C75.6162 33.8676 73.9573 32.5191 72.2098 31.3611L45.6797 57.8904L54.6726 66.884L59.1697 62.3874L71.8904 49.6661C75.2784 56.7573 74.0366 65.5071 68.1626 71.3811L63.6662 75.8774L72.2098 84.4203C73.9573 83.2623 75.6162 81.9138 77.1562 80.374C88.0335 69.4965 89.3815 52.6997 81.2025 40.3541Z" fill="#071E3C"/>
</svg>
