<svg width="20" height="20" viewBox="0 0 20 20" fill="none" xmlns="http://www.w3.org/2000/svg">
<path d="M2.56806 11.6208C2.12723 10.8292 1.90723 10.4325 1.90723 10C1.90723 9.56751 2.12723 9.17167 2.56806 8.38001L3.69139 6.35834L4.87973 4.37417C5.34556 3.59667 5.57806 3.20751 5.95223 2.99084C6.32723 2.77501 6.77973 2.76834 7.68556 2.75334L9.99973 2.71667L12.3122 2.75334C13.2189 2.76834 13.6714 2.77501 14.0456 2.99167C14.4197 3.20834 14.6539 3.59667 15.1189 4.37417L16.3081 6.35834L17.4331 8.38001C17.8731 9.17167 18.0931 9.56751 18.0931 10C18.0931 10.4325 17.8731 10.8283 17.4322 11.62L16.3081 13.6417L15.1197 15.6258C14.6539 16.4033 14.4214 16.7925 14.0472 17.0092C13.6722 17.225 13.2197 17.2317 12.3139 17.2467L9.99973 17.2833L7.68723 17.2467C6.78056 17.2317 6.32806 17.225 5.95389 17.0083C5.57973 16.7917 5.34556 16.4033 4.88056 15.6258L3.69139 13.6417L2.56806 11.6208Z" stroke="#1E1E1E" stroke-width="1.66667"/>
<path d="M10 12.5C11.3807 12.5 12.5 11.3807 12.5 10C12.5 8.61929 11.3807 7.5 10 7.5C8.61929 7.5 7.5 8.61929 7.5 10C7.5 11.3807 8.61929 12.5 10 12.5Z" stroke="#1E1E1E" stroke-width="1.66667"/>
</svg>
