<svg width="39" height="33" viewBox="0 0 39 33" fill="none" xmlns="http://www.w3.org/2000/svg">
<path d="M0 21C0 19.8954 0.895431 19 2 19C3.10457 19 4 19.8954 4 21V33H0V21Z" fill="url(#paint0_linear_6_399)"/>
<path d="M7 7C7 5.89543 7.89543 5 9 5C10.1046 5 11 5.89543 11 7V33H7V7Z" fill="url(#paint1_linear_6_399)"/>
<path d="M14 2C14 0.895431 14.8954 0 16 0C17.1046 0 18 0.895431 18 2V33H14V2Z" fill="url(#paint2_linear_6_399)"/>
<path d="M21 7C21 5.89543 21.8954 5 23 5C24.1046 5 25 5.89543 25 7V33H21V7Z" fill="url(#paint3_linear_6_399)"/>
<path d="M28 13C28 11.8954 28.8954 11 30 11C31.1046 11 32 11.8954 32 13V33H28V13Z" fill="url(#paint4_linear_6_399)"/>
<path d="M35 10C35 8.89543 35.8954 8 37 8C38.1046 8 39 8.89543 39 10V33H35V10Z" fill="url(#paint5_linear_6_399)"/>
<defs>
<linearGradient id="paint0_linear_6_399" x1="2" y1="19" x2="2" y2="33" gradientUnits="userSpaceOnUse">
<stop stop-color="#BA5EEF"/>
<stop offset="1" stop-color="#0065E8"/>
</linearGradient>
<linearGradient id="paint1_linear_6_399" x1="9" y1="5" x2="9" y2="33" gradientUnits="userSpaceOnUse">
<stop stop-color="#BA5EEF"/>
<stop offset="1" stop-color="#0065E8"/>
</linearGradient>
<linearGradient id="paint2_linear_6_399" x1="16" y1="0" x2="16" y2="33" gradientUnits="userSpaceOnUse">
<stop stop-color="#BA5EEF"/>
<stop offset="1" stop-color="#0065E8"/>
</linearGradient>
<linearGradient id="paint3_linear_6_399" x1="23" y1="5" x2="23" y2="33" gradientUnits="userSpaceOnUse">
<stop stop-color="#BA5EEF"/>
<stop offset="1" stop-color="#0065E8"/>
</linearGradient>
<linearGradient id="paint4_linear_6_399" x1="30" y1="11" x2="30" y2="33" gradientUnits="userSpaceOnUse">
<stop stop-color="#BA5EEF"/>
<stop offset="1" stop-color="#0065E8"/>
</linearGradient>
<linearGradient id="paint5_linear_6_399" x1="37" y1="8" x2="37" y2="33" gradientUnits="userSpaceOnUse">
<stop stop-color="#BA5EEF"/>
<stop offset="1" stop-color="#0065E8"/>
</linearGradient>
</defs>
</svg>
