<svg width="30" height="30" viewBox="0 0 30 30" fill="none" xmlns="http://www.w3.org/2000/svg">
<rect x="0.5" y="0.5" width="29" height="29" rx="14.5" stroke="#928C8C"/>
<rect width="18" height="18" transform="translate(6 6)" fill="white"/>
<path d="M14.967 13.767V16.3553H18.561C18.2265 18 16.8263 18.945 14.967 18.945C12.8014 18.9152 11.0615 17.1512 11.0615 14.9854C11.0615 12.8196 12.8014 11.0556 14.967 11.0258C15.8672 11.0247 16.7396 11.3371 17.4345 11.9093L19.3845 9.9593C17.1477 7.99285 13.881 7.73992 11.3682 9.33863C8.85536 10.9373 7.7003 14.0035 8.53372 16.8628C9.36714 19.7221 11.9887 21.6874 14.967 21.6855C18.3173 21.6855 21.3638 19.2488 21.3638 14.985C21.3586 14.5745 21.3083 14.1658 21.2138 13.7663L14.967 13.767Z" fill="#928C8C"/>
</svg>
