<svg width="30" height="30" viewBox="0 0 30 30" fill="none" xmlns="http://www.w3.org/2000/svg">
<rect x="0.5" y="0.5" width="29" height="29" rx="14.5" stroke="#928C8C"/>
<path d="M15.002 21.7807C13.157 21.7807 12.9395 21.7709 12.2195 21.7394C11.658 21.7209 11.1038 21.6068 10.5807 21.4019C9.67569 21.0497 8.96006 20.3338 8.6082 19.4287C8.41118 18.9037 8.30492 18.349 8.29395 17.7884C8.25195 17.0699 8.25195 16.8344 8.25195 15.0037C8.25195 13.1534 8.2617 12.9374 8.29395 12.2212C8.30516 11.6613 8.41142 11.1074 8.6082 10.5832C8.95968 9.67681 9.67647 8.96029 10.583 8.60916C11.1069 8.41131 11.661 8.30477 12.221 8.29416C12.9372 8.25366 13.1727 8.25366 15.002 8.25366C16.862 8.25366 17.0757 8.26341 17.7845 8.29416C18.3459 8.30486 18.9014 8.41139 19.427 8.60916C20.3332 8.96069 21.0498 9.67707 21.4017 10.5832C21.602 11.1151 21.7089 11.6776 21.7175 12.2459C21.7595 12.9644 21.7595 13.1992 21.7595 15.0292C21.7595 16.8592 21.749 17.0992 21.7175 17.8094C21.7063 18.3706 21.5998 18.9257 21.4025 19.4512C21.0497 20.3569 20.333 21.0731 19.427 21.4252C18.9021 21.6218 18.3478 21.7281 17.7875 21.7394C17.0712 21.7807 16.8365 21.7807 15.002 21.7807ZM14.9765 9.44091C13.142 9.44091 12.9515 9.44991 12.2352 9.48216C11.8077 9.48783 11.3843 9.56672 10.9835 9.71541C10.3915 9.94192 9.92312 10.4084 9.6942 10.9994C9.54436 11.4046 9.46546 11.8326 9.46095 12.2647C9.4212 12.9914 9.4212 13.1819 9.4212 15.0037C9.4212 16.8037 9.42795 17.0219 9.46095 17.7442C9.46767 18.1718 9.54653 18.5953 9.6942 18.9967C9.92346 19.5873 10.3918 20.0534 10.9835 20.2799C11.384 20.4296 11.8076 20.5085 12.2352 20.5132C12.9612 20.5552 13.1525 20.5552 14.9765 20.5552C16.8162 20.5552 17.0067 20.5462 17.717 20.5132C18.1448 20.508 18.5685 20.4291 18.9695 20.2799C19.5578 20.0515 20.0231 19.5864 20.252 18.9982C20.4015 18.5926 20.4804 18.1644 20.4852 17.7322H20.4935C20.5257 17.0152 20.5257 16.8239 20.5257 14.9917C20.5257 13.1594 20.5175 12.9667 20.4852 12.2504C20.4785 11.8233 20.3996 11.4003 20.252 10.9994C20.0237 10.4103 19.5583 9.94438 18.9695 9.71541C18.5685 9.56597 18.1448 9.48705 17.717 9.48216C16.9917 9.44091 16.802 9.44091 14.9765 9.44091ZM15.002 18.4679C13.5994 18.4688 12.3345 17.6247 11.7971 16.3293C11.2597 15.0338 11.5556 13.5422 12.5469 12.55C13.5382 11.5579 15.0296 11.2606 16.3255 11.7969C17.6214 12.3332 18.4666 13.5974 18.467 14.9999C18.4649 16.9132 16.9152 18.4642 15.002 18.4679ZM15.002 12.7484C13.7593 12.7484 12.752 13.7558 12.752 14.9984C12.752 16.2411 13.7593 17.2484 15.002 17.2484C16.2446 17.2484 17.252 16.2411 17.252 14.9984C17.2491 13.757 16.2434 12.7513 15.002 12.7484ZM18.602 12.2137C18.156 12.212 17.7956 11.8496 17.7965 11.4037C17.7973 10.9577 18.159 10.5967 18.605 10.5967C19.0509 10.5967 19.4126 10.9577 19.4135 11.4037C19.4137 11.6188 19.3282 11.8252 19.1759 11.9772C19.0236 12.1292 18.8171 12.2143 18.602 12.2137Z" fill="#928C8C"/>
</svg>
