<svg width="30" height="30" viewBox="0 0 30 30" fill="none" xmlns="http://www.w3.org/2000/svg">
<rect x="0.5" y="0.5" width="29" height="29" rx="14.5" stroke="#928C8C"/>
<path d="M15.75 21.75H12.75V12.75H15.75V14.25C16.3895 13.4364 17.3592 12.9514 18.3938 12.9278C20.2542 12.9381 21.7554 14.452 21.75 16.3125V21.75H18.75V16.6875C18.63 15.8495 17.9113 15.2277 17.0648 15.2295C16.6945 15.2412 16.3449 15.4033 16.0968 15.6785C15.8487 15.9536 15.7235 16.318 15.75 16.6875V21.75ZM11.25 21.75H8.25V12.75H11.25V21.75ZM9.75 11.25C8.92157 11.25 8.25 10.5784 8.25 9.75C8.25 8.92157 8.92157 8.25 9.75 8.25C10.5784 8.25 11.25 8.92157 11.25 9.75C11.25 10.1478 11.092 10.5294 10.8107 10.8107C10.5294 11.092 10.1478 11.25 9.75 11.25Z" fill="#928C8C"/>
</svg>
