<svg width="110" height="115" viewBox="0 0 95 99" fill="none" xmlns="http://www.w3.org/2000/svg">
<path d="M21.8388 64.1714C16.8338 53.6927 18.6687 40.7646 27.3471 32.0852L32.8565 26.5769C40.1948 19.2386 40.1948 7.33933 32.8565 0L14.3816 18.4739C-4.06499 36.9215 -4.24093 67.2855 14.3805 85.5582C25.2192 96.1957 39.9345 100.519 53.9261 98.5301L27.3471 71.9522C25.018 69.622 23.1828 66.9847 21.8388 64.1714Z" fill="#176ACF"/>
<path d="M86.4812 26.1063C84.7701 23.5239 82.7775 21.0727 80.5023 18.7974C78.2267 16.5219 75.7755 14.5292 73.1934 12.8182L33.9922 52.0181L47.2802 65.3072L53.9251 58.6631L72.7215 39.8659C77.7275 50.3438 75.8926 63.2727 67.2132 71.9522L60.5693 78.596L73.1934 91.2191C75.7755 89.5081 78.2267 87.5155 80.5023 85.2402C96.5747 69.1675 98.5665 44.3483 86.4812 26.1063Z" fill="#071E3C"/>
</svg>
