<svg width="30" height="30" viewBox="0 0 30 30" fill="none" xmlns="http://www.w3.org/2000/svg">
<rect x="0.5" y="0.5" width="29" height="29" rx="14.5" stroke="#928C8C"/>
<path d="M20.9958 11.016C21.6681 10.6141 22.1712 9.98117 22.411 9.23549C21.7793 9.61034 21.088 9.8744 20.3673 10.0162C19.368 8.95914 17.7847 8.70189 16.5021 9.38823C15.2195 10.0746 14.5551 11.5346 14.8803 12.9525C12.2925 12.8226 9.8815 11.6002 8.24727 9.58949C7.3944 11.0606 7.83024 12.9411 9.24327 13.887C8.73231 13.8706 8.23267 13.7322 7.78602 13.4835C7.78602 13.497 7.78602 13.5105 7.78602 13.524C7.78632 15.0564 8.8663 16.3763 10.3683 16.68C9.89432 16.8089 9.39718 16.8279 8.91477 16.7355C9.33717 18.0459 10.5449 18.9437 11.9215 18.9705C10.7814 19.8653 9.37338 20.3506 7.92402 20.3482C7.66713 20.3486 7.41043 20.3338 7.15527 20.304C8.62707 21.2498 10.3401 21.7518 12.0895 21.75C14.5235 21.7667 16.8625 20.8072 18.5836 19.086C20.3046 17.3648 21.2639 15.0257 21.247 12.5917C21.247 12.4522 21.2438 12.3135 21.2373 12.1755C21.8676 11.7199 22.4116 11.1556 22.8438 10.509C22.2565 10.7693 21.6336 10.9402 20.9958 11.016Z" fill="#928C8C"/>
</svg>
